# xmcd CD database file
#
# Track frame offsets:
#	150
#	11010
#	37002
#	56122
#	87920
#	112957
#	139342
#	154105
#	172967
#	196660
#	220057
#	243422
#	270382
#
# Disc length: 3788 seconds
#
# Revision: 2
# Processed by: cddbd v1.4PL0 Copyright (c) Steve Scherf et al.
# Submitted via: CDex 1.50Beta7
#
DISCID=ac0eca0d
DTITLE=Eddy Clearwater - A Real Good Time - Live!
DYEAR=1990
DGENRE=Blues
TTITLE0=How!
TTITLE1=A Real Good Time ~ Cool Water
TTITLE2=Three Ways to Skin a Cat
TTITLE3=Lowdown Lonesome Feeling
TTITLE4=Hustlin' and Schemin'
TTITLE5=Hi-Yo Silver
TTITLE6=I'll Change My Style
TTITLE7=My Little Honey Bee
TTITLE8=Party at My House
TTITLE9=Tear Down the Wall of Hate
TTITLE10=All Your Love
TTITLE11=Get Off on the Blues
TTITLE12=Goodnight, Sweetheart, Goodnight
EXTD=YEAR: 1990
EXTT0=
EXTT1=
EXTT2=
EXTT3=
EXTT4=
EXTT5=
EXTT6=
EXTT7=
EXTT8=
EXTT9=
EXTT10=
EXTT11=
EXTT12=
PLAYORDER=
